<svg width="308" height="440" viewBox="0 0 308 440" fill="none" xmlns="http://www.w3.org/2000/svg">
<rect width="80" height="80" fill="url(#paint0_linear_126_4584)"/>
<g clip-path="url(#clip0_126_4584)">
<path d="M22 52H58V48H22V52ZM22 42H58V38H22V42ZM22 28V32H58V28H22Z" fill="white"/>
</g>
<g filter="url(#filter0_d_126_4584)">
<rect width="300" height="344" transform="translate(0 80)" fill="white"/>
<path d="M24.528 116.368C24.528 115.259 24.768 114.272 25.248 113.408C25.728 112.533 26.3947 111.856 27.248 111.376C28.112 110.885 29.088 110.64 30.176 110.64C31.5093 110.64 32.6507 110.992 33.6 111.696C34.5493 112.4 35.184 113.36 35.504 114.576H32.496C32.272 114.107 31.952 113.749 31.536 113.504C31.1307 113.259 30.6667 113.136 30.144 113.136C29.3013 113.136 28.6187 113.429 28.096 114.016C27.5733 114.603 27.312 115.387 27.312 116.368C27.312 117.349 27.5733 118.133 28.096 118.72C28.6187 119.307 29.3013 119.6 30.144 119.6C30.6667 119.6 31.1307 119.477 31.536 119.232C31.952 118.987 32.272 118.629 32.496 118.16H35.504C35.184 119.376 34.5493 120.336 33.6 121.04C32.6507 121.733 31.5093 122.08 30.176 122.08C29.088 122.08 28.112 121.84 27.248 121.36C26.3947 120.869 25.728 120.192 25.248 119.328C24.768 118.464 24.528 117.477 24.528 116.368ZM36.6355 117.52C36.6355 116.603 36.8062 115.797 37.1475 115.104C37.4995 114.411 37.9742 113.877 38.5715 113.504C39.1688 113.131 39.8355 112.944 40.5715 112.944C41.2008 112.944 41.7502 113.072 42.2195 113.328C42.6995 113.584 43.0675 113.92 43.3235 114.336V113.072H46.0595V122H43.3235V120.736C43.0568 121.152 42.6835 121.488 42.2035 121.744C41.7342 122 41.1848 122.128 40.5555 122.128C39.8302 122.128 39.1688 121.941 38.5715 121.568C37.9742 121.184 37.4995 120.645 37.1475 119.952C36.8062 119.248 36.6355 118.437 36.6355 117.52ZM43.3235 117.536C43.3235 116.853 43.1315 116.315 42.7475 115.92C42.3742 115.525 41.9155 115.328 41.3715 115.328C40.8275 115.328 40.3635 115.525 39.9795 115.92C39.6062 116.304 39.4195 116.837 39.4195 117.52C39.4195 118.203 39.6062 118.747 39.9795 119.152C40.3635 119.547 40.8275 119.744 41.3715 119.744C41.9155 119.744 42.3742 119.547 42.7475 119.152C43.1315 118.757 43.3235 118.219 43.3235 117.536ZM53.0149 119.68V122H51.6229C50.6309 122 49.8575 121.76 49.3029 121.28C48.7482 120.789 48.4709 119.995 48.4709 118.896V115.344H47.3829V113.072H48.4709V110.896H51.2069V113.072H52.9989V115.344H51.2069V118.928C51.2069 119.195 51.2709 119.387 51.3989 119.504C51.5269 119.621 51.7402 119.68 52.0389 119.68H53.0149ZM62.9549 117.392C62.9549 117.648 62.9389 117.915 62.9069 118.192H56.7149C56.7575 118.747 56.9335 119.173 57.2429 119.472C57.5629 119.76 57.9522 119.904 58.4109 119.904C59.0935 119.904 59.5682 119.616 59.8349 119.04H62.7469C62.5975 119.627 62.3255 120.155 61.9309 120.624C61.5469 121.093 61.0615 121.461 60.4749 121.728C59.8882 121.995 59.2322 122.128 58.5069 122.128C57.6322 122.128 56.8535 121.941 56.1709 121.568C55.4882 121.195 54.9549 120.661 54.5709 119.968C54.1869 119.275 53.9949 118.464 53.9949 117.536C53.9949 116.608 54.1815 115.797 54.5549 115.104C54.9389 114.411 55.4722 113.877 56.1549 113.504C56.8375 113.131 57.6215 112.944 58.5069 112.944C59.3709 112.944 60.1389 113.125 60.8109 113.488C61.4829 113.851 62.0055 114.368 62.3789 115.04C62.7629 115.712 62.9549 116.496 62.9549 117.392ZM60.1549 116.672C60.1549 116.203 59.9949 115.829 59.6749 115.552C59.3549 115.275 58.9549 115.136 58.4749 115.136C58.0162 115.136 57.6269 115.269 57.3069 115.536C56.9975 115.803 56.8055 116.181 56.7309 116.672H60.1549ZM67.7903 112.944C68.4196 112.944 68.9689 113.072 69.4383 113.328C69.9183 113.584 70.2863 113.92 70.5423 114.336V113.072H73.2783V121.984C73.2783 122.805 73.1129 123.547 72.7823 124.208C72.4623 124.88 71.9663 125.413 71.2943 125.808C70.6329 126.203 69.8063 126.4 68.8143 126.4C67.4916 126.4 66.4196 126.085 65.5983 125.456C64.7769 124.837 64.3076 123.995 64.1903 122.928H66.8943C66.9796 123.269 67.1823 123.536 67.5023 123.728C67.8223 123.931 68.2169 124.032 68.6863 124.032C69.2516 124.032 69.6996 123.867 70.0303 123.536C70.3716 123.216 70.5423 122.699 70.5423 121.984V120.72C70.2756 121.136 69.9076 121.477 69.4383 121.744C68.9689 122 68.4196 122.128 67.7903 122.128C67.0543 122.128 66.3876 121.941 65.7903 121.568C65.1929 121.184 64.7183 120.645 64.3663 119.952C64.0249 119.248 63.8543 118.437 63.8543 117.52C63.8543 116.603 64.0249 115.797 64.3663 115.104C64.7183 114.411 65.1929 113.877 65.7903 113.504C66.3876 113.131 67.0543 112.944 67.7903 112.944ZM70.5423 117.536C70.5423 116.853 70.3503 116.315 69.9663 115.92C69.5929 115.525 69.1343 115.328 68.5903 115.328C68.0463 115.328 67.5823 115.525 67.1983 115.92C66.8249 116.304 66.6383 116.837 66.6383 117.52C66.6383 118.203 66.8249 118.747 67.1983 119.152C67.5823 119.547 68.0463 119.744 68.5903 119.744C69.1343 119.744 69.5929 119.547 69.9663 119.152C70.3503 118.757 70.5423 118.219 70.5423 117.536ZM79.3216 122.128C78.447 122.128 77.6576 121.941 76.9536 121.568C76.2603 121.195 75.711 120.661 75.3056 119.968C74.911 119.275 74.7136 118.464 74.7136 117.536C74.7136 116.619 74.9163 115.813 75.3216 115.12C75.727 114.416 76.2816 113.877 76.9856 113.504C77.6896 113.131 78.479 112.944 79.3536 112.944C80.2283 112.944 81.0176 113.131 81.7216 113.504C82.4256 113.877 82.9803 114.416 83.3856 115.12C83.791 115.813 83.9936 116.619 83.9936 117.536C83.9936 118.453 83.7856 119.264 83.3696 119.968C82.9643 120.661 82.4043 121.195 81.6896 121.568C80.9856 121.941 80.1963 122.128 79.3216 122.128ZM79.3216 119.76C79.8443 119.76 80.287 119.568 80.6496 119.184C81.023 118.8 81.2096 118.251 81.2096 117.536C81.2096 116.821 81.0283 116.272 80.6656 115.888C80.3136 115.504 79.8763 115.312 79.3536 115.312C78.8203 115.312 78.3776 115.504 78.0256 115.888C77.6736 116.261 77.4976 116.811 77.4976 117.536C77.4976 118.251 77.6683 118.8 78.0096 119.184C78.3616 119.568 78.799 119.76 79.3216 119.76ZM88.1811 114.56C88.5011 114.069 88.9011 113.685 89.3811 113.408C89.8611 113.12 90.3945 112.976 90.9811 112.976V115.872H90.2291C89.5465 115.872 89.0345 116.021 88.6931 116.32C88.3518 116.608 88.1811 117.12 88.1811 117.856V122H85.4451V113.072H88.1811V114.56ZM93.6649 112.144C93.1849 112.144 92.7902 112.005 92.4809 111.728C92.1822 111.44 92.0329 111.088 92.0329 110.672C92.0329 110.245 92.1822 109.893 92.4809 109.616C92.7902 109.328 93.1849 109.184 93.6649 109.184C94.1342 109.184 94.5182 109.328 94.8169 109.616C95.1262 109.893 95.2809 110.245 95.2809 110.672C95.2809 111.088 95.1262 111.44 94.8169 111.728C94.5182 112.005 94.1342 112.144 93.6649 112.144ZM95.0249 113.072V122H92.2889V113.072H95.0249ZM96.4636 117.52C96.4636 116.603 96.6343 115.797 96.9756 115.104C97.3276 114.411 97.8023 113.877 98.3996 113.504C98.997 113.131 99.6636 112.944 100.4 112.944C101.029 112.944 101.578 113.072 102.048 113.328C102.528 113.584 102.896 113.92 103.152 114.336V113.072H105.888V122H103.152V120.736C102.885 121.152 102.512 121.488 102.032 121.744C101.562 122 101.013 122.128 100.384 122.128C99.6583 122.128 98.997 121.941 98.3996 121.568C97.8023 121.184 97.3276 120.645 96.9756 119.952C96.6343 119.248 96.4636 118.437 96.4636 117.52ZM103.152 117.536C103.152 116.853 102.96 116.315 102.576 115.92C102.202 115.525 101.744 115.328 101.2 115.328C100.656 115.328 100.192 115.525 99.8076 115.92C99.4343 116.304 99.2476 116.837 99.2476 117.52C99.2476 118.203 99.4343 118.747 99.8076 119.152C100.192 119.547 100.656 119.744 101.2 119.744C101.744 119.744 102.202 119.547 102.576 119.152C102.96 118.757 103.152 118.219 103.152 117.536ZM111.499 122.128C110.72 122.128 110.027 121.995 109.419 121.728C108.811 121.461 108.331 121.099 107.979 120.64C107.627 120.171 107.43 119.648 107.387 119.072H110.091C110.123 119.381 110.267 119.632 110.523 119.824C110.779 120.016 111.094 120.112 111.467 120.112C111.808 120.112 112.07 120.048 112.251 119.92C112.443 119.781 112.539 119.605 112.539 119.392C112.539 119.136 112.406 118.949 112.139 118.832C111.872 118.704 111.44 118.565 110.843 118.416C110.203 118.267 109.67 118.112 109.243 117.952C108.816 117.781 108.448 117.52 108.139 117.168C107.83 116.805 107.675 116.32 107.675 115.712C107.675 115.2 107.814 114.736 108.091 114.32C108.379 113.893 108.795 113.557 109.339 113.312C109.894 113.067 110.55 112.944 111.307 112.944C112.427 112.944 113.307 113.221 113.947 113.776C114.598 114.331 114.971 115.067 115.067 115.984H112.539C112.496 115.675 112.358 115.429 112.123 115.248C111.899 115.067 111.6 114.976 111.227 114.976C110.907 114.976 110.662 115.04 110.491 115.168C110.32 115.285 110.235 115.451 110.235 115.664C110.235 115.92 110.368 116.112 110.635 116.24C110.912 116.368 111.339 116.496 111.915 116.624C112.576 116.795 113.115 116.965 113.531 117.136C113.947 117.296 114.31 117.563 114.619 117.936C114.939 118.299 115.104 118.789 115.115 119.408C115.115 119.931 114.966 120.4 114.667 120.816C114.379 121.221 113.958 121.541 113.403 121.776C112.859 122.011 112.224 122.128 111.499 122.128Z" fill="#EB9B00"/>
<rect width="300" height="64" transform="translate(0 136)" fill="white"/>
<path d="M26.688 172.144H28.832C30.496 172.144 31.2 171.36 31.2 170.112C31.2 168.816 30.496 168.048 28.832 168.048H26.688V172.144ZM32.688 170.112C32.688 171.808 31.6 173.344 28.832 173.344H26.688V178H25.232V166.848H28.832C31.456 166.848 32.688 168.288 32.688 170.112ZM40.4656 170.128C40.4656 168.864 39.7616 168.048 38.0976 168.048H35.9536V172.272H38.0976C39.7456 172.272 40.4656 171.376 40.4656 170.128ZM34.4976 166.848H38.0976C40.7216 166.848 41.9696 168.304 41.9696 170.128C41.9696 171.552 41.1856 172.912 39.3136 173.328L42.1136 178H40.3696L37.7136 173.44H35.9536V178H34.4976V166.848ZM54.888 172.416C54.888 175.76 52.44 178.112 49.288 178.112C46.152 178.112 43.688 175.76 43.688 172.416C43.688 169.072 46.152 166.72 49.288 166.72C52.44 166.72 54.888 169.072 54.888 172.416ZM45.176 172.416C45.176 175.136 46.936 176.848 49.288 176.848C51.64 176.848 53.4 175.136 53.4 172.416C53.4 169.68 51.64 167.984 49.288 167.984C46.936 167.984 45.176 169.68 45.176 172.416ZM61.8661 166.72C64.2181 166.72 66.1701 167.936 67.0021 170.08H65.2581C64.6501 168.784 63.4341 168.032 61.8661 168.032C59.5141 168.032 57.7541 169.728 57.7541 172.416C57.7541 175.088 59.5141 176.784 61.8661 176.784C64.0581 176.784 65.5621 175.376 65.7861 173.168H61.3381V171.984H67.3381V173.104C67.0821 175.872 64.8901 178.096 61.8661 178.096C58.7301 178.096 56.2661 175.76 56.2661 172.416C56.2661 169.072 58.7301 166.72 61.8661 166.72ZM75.2313 170.128C75.2313 168.864 74.5273 168.048 72.8633 168.048H70.7193V172.272H72.8633C74.5113 172.272 75.2313 171.376 75.2313 170.128ZM69.2633 166.848H72.8633C75.4873 166.848 76.7353 168.304 76.7353 170.128C76.7353 171.552 75.9513 172.912 74.0793 173.328L76.8793 178H75.1353L72.4793 173.44H70.7193V178H69.2633V166.848ZM86.4856 178L85.5896 175.52H80.7256L79.8296 178H78.2936L82.3256 166.912H84.0056L88.0216 178H86.4856ZM85.1736 174.336L83.1576 168.704L81.1416 174.336H85.1736ZM89.7789 178V166.928H91.3469L95.4429 176.08L99.5389 166.928H101.091V178H99.6349V169.744L95.9549 178H94.9309L91.2349 169.728V178H89.7789ZM111.048 178L110.152 175.52H105.288L104.392 178H102.856L106.888 166.912H108.568L112.584 178H111.048ZM109.736 174.336L107.72 168.704L105.704 174.336H109.736ZM113.797 172.416C113.797 169.072 116.245 166.704 119.365 166.704C121.781 166.704 123.701 167.92 124.533 170.08H122.789C122.181 168.736 120.997 167.984 119.365 167.984C117.029 167.984 115.285 169.68 115.285 172.416C115.285 175.136 117.029 176.832 119.365 176.832C120.997 176.832 122.181 176.08 122.789 174.752H124.533C123.765 176.72 122.069 177.904 119.925 178.08V178.928C121.157 178.912 121.989 179.456 121.989 180.512C121.989 181.52 121.173 182.16 120.037 182.16H118.197V181.216H119.749C120.437 181.216 120.773 181.024 120.773 180.512C120.773 180.016 120.437 179.824 119.749 179.824H118.949V178.08C116.037 177.888 113.797 175.616 113.797 172.416ZM134.189 178L133.293 175.52H128.429L127.533 178H125.997L130.029 166.912H131.709L135.725 178H134.189ZM128.509 165.968C128.669 164.864 129.277 164.288 130.109 164.288C130.957 164.288 131.277 165.024 131.933 165.024C132.285 165.024 132.573 164.8 132.637 164.336H133.469C133.341 165.424 132.701 166 131.869 166C131.005 166 130.685 165.264 130.045 165.264C129.693 165.264 129.421 165.488 129.357 165.968H128.509ZM132.877 174.336L130.861 168.704L128.845 174.336H132.877ZM148.138 172.416C148.138 175.76 145.69 178.112 142.538 178.112C139.402 178.112 136.938 175.76 136.938 172.416C136.938 169.072 139.402 166.72 142.538 166.72C145.69 166.72 148.138 169.072 148.138 172.416ZM138.426 172.416C138.426 175.136 140.186 176.848 142.538 176.848C144.89 176.848 146.65 175.136 146.65 172.416C146.65 169.68 144.89 167.984 142.538 167.984C140.186 167.984 138.426 169.68 138.426 172.416Z" fill="url(#paint1_linear_126_4584)"/>
<rect width="300" height="56" transform="translate(0 200)" fill="white"/>
<path d="M31.536 222.848V224.032H26.688V227.792H30.624V228.976H26.688V234H25.232V222.848H31.536ZM39.1665 234L36.5105 229.44H34.7505V234H33.2945V222.848H36.8945C37.7372 222.848 38.4465 222.992 39.0225 223.28C39.6092 223.568 40.0465 223.957 40.3345 224.448C40.6225 224.939 40.7665 225.499 40.7665 226.128C40.7665 226.896 40.5425 227.573 40.0945 228.16C39.6572 228.747 38.9958 229.136 38.1105 229.328L40.9105 234H39.1665ZM34.7505 228.272H36.8945C37.6838 228.272 38.2758 228.08 38.6705 227.696C39.0652 227.301 39.2625 226.779 39.2625 226.128C39.2625 225.467 39.0652 224.955 38.6705 224.592C38.2865 224.229 37.6945 224.048 36.8945 224.048H34.7505V228.272ZM48.0849 234.112C47.0502 234.112 46.1062 233.872 45.2529 233.392C44.3995 232.901 43.7222 232.224 43.2209 231.36C42.7302 230.485 42.4849 229.504 42.4849 228.416C42.4849 227.328 42.7302 226.352 43.2209 225.488C43.7222 224.613 44.3995 223.936 45.2529 223.456C46.1062 222.965 47.0502 222.72 48.0849 222.72C49.1302 222.72 50.0795 222.965 50.9329 223.456C51.7862 223.936 52.4582 224.608 52.9489 225.472C53.4395 226.336 53.6849 227.317 53.6849 228.416C53.6849 229.515 53.4395 230.496 52.9489 231.36C52.4582 232.224 51.7862 232.901 50.9329 233.392C50.0795 233.872 49.1302 234.112 48.0849 234.112ZM48.0849 232.848C48.8635 232.848 49.5622 232.667 50.1809 232.304C50.8102 231.941 51.3009 231.424 51.6529 230.752C52.0155 230.08 52.1969 229.301 52.1969 228.416C52.1969 227.52 52.0155 226.741 51.6529 226.08C51.3009 225.408 50.8155 224.891 50.1969 224.528C49.5782 224.165 48.8742 223.984 48.0849 223.984C47.2955 223.984 46.5915 224.165 45.9729 224.528C45.3542 224.891 44.8635 225.408 44.5009 226.08C44.1489 226.741 43.9729 227.52 43.9729 228.416C43.9729 229.301 44.1489 230.08 44.5009 230.752C44.8635 231.424 45.3542 231.941 45.9729 232.304C46.6022 232.667 47.3062 232.848 48.0849 232.848ZM64.375 234H62.919L57.063 225.12V234H55.607V222.832H57.063L62.919 231.696V222.832H64.375V234ZM73.721 222.848V224.032H70.681V234H69.225V224.032H66.169V222.848H73.721ZM81.5933 227.52V228.752H75.2093V227.52H81.5933ZM85.7818 224.032V227.76H89.8458V228.96H85.7818V232.8H90.3258V234H84.3258V222.832H90.3258V224.032H85.7818ZM101.297 234H99.8409L93.9849 225.12V234H92.5289V222.832H93.9849L99.8409 231.696V222.832H101.297V234ZM107.251 222.848C108.467 222.848 109.518 223.077 110.403 223.536C111.299 223.984 111.982 224.629 112.451 225.472C112.931 226.315 113.171 227.307 113.171 228.448C113.171 229.589 112.931 230.581 112.451 231.424C111.982 232.256 111.299 232.896 110.403 233.344C109.518 233.781 108.467 234 107.251 234H103.779V222.848H107.251ZM107.251 232.8C108.691 232.8 109.79 232.421 110.547 231.664C111.304 230.896 111.683 229.824 111.683 228.448C111.683 227.061 111.299 225.979 110.531 225.2C109.774 224.421 108.68 224.032 107.251 224.032H105.235V232.8H107.251Z" fill="url(#paint2_linear_126_4584)"/>
<rect width="300" height="56" transform="translate(0 256)" fill="white"/>
<path d="M26.688 278.848V290H25.232V278.848H26.688ZM37.9375 290H36.4815L30.6255 281.12V290H29.1695V278.832H30.6255L36.4815 287.696V278.832H37.9375V290ZM46.7235 278.848V280.032H41.8755V283.792H45.8115V284.976H41.8755V290H40.4195V278.848H46.7235ZM54.354 290L51.698 285.44H49.938V290H48.482V278.848H52.082C52.9247 278.848 53.634 278.992 54.21 279.28C54.7967 279.568 55.234 279.957 55.522 280.448C55.81 280.939 55.954 281.499 55.954 282.128C55.954 282.896 55.73 283.573 55.282 284.16C54.8447 284.747 54.1833 285.136 53.298 285.328L56.098 290H54.354ZM49.938 284.272H52.082C52.8713 284.272 53.4633 284.08 53.858 283.696C54.2527 283.301 54.45 282.779 54.45 282.128C54.45 281.467 54.2527 280.955 53.858 280.592C53.474 280.229 52.882 280.048 52.082 280.048H49.938V284.272ZM64.8084 287.52H59.9444L59.0484 290H57.5124L61.5444 278.912H63.2244L67.2404 290H65.7044L64.8084 287.52ZM64.3924 286.336L62.3764 280.704L60.3604 286.336H64.3924ZM70.4536 280.032V283.76H74.5176V284.96H70.4536V288.8H74.9976V290H68.9976V278.832H74.9976V280.032H70.4536ZM80.7368 290.112C80.0008 290.112 79.3394 289.984 78.7528 289.728C78.1768 289.461 77.7234 289.099 77.3928 288.64C77.0621 288.171 76.8914 287.632 76.8808 287.024H78.4328C78.4861 287.547 78.6994 287.989 79.0728 288.352C79.4568 288.704 80.0114 288.88 80.7368 288.88C81.4301 288.88 81.9741 288.709 82.3688 288.368C82.7741 288.016 82.9768 287.568 82.9768 287.024C82.9768 286.597 82.8594 286.251 82.6248 285.984C82.3901 285.717 82.0968 285.515 81.7448 285.376C81.3928 285.237 80.9181 285.088 80.3208 284.928C79.5848 284.736 78.9928 284.544 78.5448 284.352C78.1074 284.16 77.7288 283.861 77.4088 283.456C77.0994 283.04 76.9448 282.485 76.9448 281.792C76.9448 281.184 77.0994 280.645 77.4088 280.176C77.7181 279.707 78.1501 279.344 78.7048 279.088C79.2701 278.832 79.9154 278.704 80.6408 278.704C81.6861 278.704 82.5394 278.965 83.2008 279.488C83.8728 280.011 84.2514 280.704 84.3368 281.568H82.7368C82.6834 281.141 82.4594 280.768 82.0648 280.448C81.6701 280.117 81.1474 279.952 80.4968 279.952C79.8888 279.952 79.3928 280.112 79.0088 280.432C78.6248 280.741 78.4328 281.179 78.4328 281.744C78.4328 282.149 78.5448 282.48 78.7688 282.736C79.0034 282.992 79.2861 283.189 79.6168 283.328C79.9581 283.456 80.4328 283.605 81.0408 283.776C81.7768 283.979 82.3688 284.181 82.8168 284.384C83.2648 284.576 83.6488 284.88 83.9688 285.296C84.2888 285.701 84.4488 286.256 84.4488 286.96C84.4488 287.504 84.3048 288.016 84.0168 288.496C83.7288 288.976 83.3021 289.365 82.7368 289.664C82.1714 289.963 81.5048 290.112 80.7368 290.112ZM93.4554 278.848V280.032H90.4154V290H88.9594V280.032H85.9034V278.848H93.4554ZM101.12 290L98.4636 285.44H96.7036V290H95.2476V278.848H98.8476C99.6903 278.848 100.4 278.992 100.976 279.28C101.562 279.568 102 279.957 102.288 280.448C102.576 280.939 102.72 281.499 102.72 282.128C102.72 282.896 102.496 283.573 102.048 284.16C101.61 284.747 100.949 285.136 100.064 285.328L102.864 290H101.12ZM96.7036 284.272H98.8476C99.637 284.272 100.229 284.08 100.624 283.696C101.018 283.301 101.216 282.779 101.216 282.128C101.216 281.467 101.018 280.955 100.624 280.592C100.24 280.229 99.6476 280.048 98.8476 280.048H96.7036V284.272ZM106.406 278.848V285.904C106.406 286.896 106.646 287.632 107.126 288.112C107.617 288.592 108.294 288.832 109.158 288.832C110.011 288.832 110.678 288.592 111.158 288.112C111.649 287.632 111.894 286.896 111.894 285.904V278.848H113.35V285.888C113.35 286.816 113.163 287.6 112.79 288.24C112.417 288.869 111.91 289.339 111.27 289.648C110.641 289.957 109.931 290.112 109.142 290.112C108.353 290.112 107.638 289.957 106.998 289.648C106.369 289.339 105.867 288.869 105.494 288.24C105.131 287.6 104.95 286.816 104.95 285.888V278.848H106.406ZM122.643 278.848V280.032H119.603V290H118.147V280.032H115.091V278.848H122.643ZM125.859 278.848V285.904C125.859 286.896 126.099 287.632 126.579 288.112C127.07 288.592 127.747 288.832 128.611 288.832C129.464 288.832 130.131 288.592 130.611 288.112C131.102 287.632 131.347 286.896 131.347 285.904V278.848H132.803V285.888C132.803 286.816 132.616 287.6 132.243 288.24C131.87 288.869 131.363 289.339 130.723 289.648C130.094 289.957 129.384 290.112 128.595 290.112C127.806 290.112 127.091 289.957 126.451 289.648C125.822 289.339 125.32 288.869 124.947 288.24C124.584 287.6 124.403 286.816 124.403 285.888V278.848H125.859ZM141.104 290L138.448 285.44H136.688V290H135.232V278.848H138.832C139.675 278.848 140.384 278.992 140.96 279.28C141.547 279.568 141.984 279.957 142.272 280.448C142.56 280.939 142.704 281.499 142.704 282.128C142.704 282.896 142.48 283.573 142.032 284.16C141.595 284.747 140.933 285.136 140.048 285.328L142.848 290H141.104ZM136.688 284.272H138.832C139.621 284.272 140.213 284.08 140.608 283.696C141.003 283.301 141.2 282.779 141.2 282.128C141.2 281.467 141.003 280.955 140.608 280.592C140.224 280.229 139.632 280.048 138.832 280.048H136.688V284.272ZM151.558 287.52H146.694L145.798 290H144.262L148.294 278.912H149.974L153.99 290H152.454L151.558 287.52ZM151.142 286.336L149.126 280.704L147.11 286.336H151.142Z" fill="url(#paint3_linear_126_4584)"/>
<rect width="300" height="56" transform="translate(0 312)" fill="white"/>
<path d="M30.816 340.256C31.2213 340.32 31.5893 340.485 31.92 340.752C32.2613 341.019 32.528 341.349 32.72 341.744C32.9227 342.139 33.024 342.56 33.024 343.008C33.024 343.573 32.88 344.085 32.592 344.544C32.304 344.992 31.8827 345.349 31.328 345.616C30.784 345.872 30.1387 346 29.392 346H25.232V334.848H29.232C29.9893 334.848 30.6347 334.976 31.168 335.232C31.7013 335.477 32.1013 335.813 32.368 336.24C32.6347 336.667 32.768 337.147 32.768 337.68C32.768 338.341 32.5867 338.891 32.224 339.328C31.872 339.755 31.4027 340.064 30.816 340.256ZM26.688 339.664H29.136C29.8187 339.664 30.3467 339.504 30.72 339.184C31.0933 338.864 31.28 338.421 31.28 337.856C31.28 337.291 31.0933 336.848 30.72 336.528C30.3467 336.208 29.808 336.048 29.104 336.048H26.688V339.664ZM29.264 344.8C29.9893 344.8 30.5547 344.629 30.96 344.288C31.3653 343.947 31.568 343.472 31.568 342.864C31.568 342.245 31.3547 341.76 30.928 341.408C30.5013 341.045 29.9307 340.864 29.216 340.864H26.688V344.8H29.264ZM36.4685 334.848V341.904C36.4685 342.896 36.7085 343.632 37.1885 344.112C37.6792 344.592 38.3565 344.832 39.2205 344.832C40.0738 344.832 40.7405 344.592 41.2205 344.112C41.7112 343.632 41.9565 342.896 41.9565 341.904V334.848H43.4125V341.888C43.4125 342.816 43.2258 343.6 42.8525 344.24C42.4792 344.869 41.9725 345.339 41.3325 345.648C40.7032 345.957 39.9938 346.112 39.2045 346.112C38.4152 346.112 37.7005 345.957 37.0605 345.648C36.4312 345.339 35.9298 344.869 35.5565 344.24C35.1938 343.6 35.0125 342.816 35.0125 341.888V334.848H36.4685ZM49.3774 346.112C48.6414 346.112 47.98 345.984 47.3934 345.728C46.8174 345.461 46.364 345.099 46.0334 344.64C45.7027 344.171 45.532 343.632 45.5214 343.024H47.0734C47.1267 343.547 47.34 343.989 47.7134 344.352C48.0974 344.704 48.652 344.88 49.3774 344.88C50.0707 344.88 50.6147 344.709 51.0094 344.368C51.4147 344.016 51.6174 343.568 51.6174 343.024C51.6174 342.597 51.5 342.251 51.2654 341.984C51.0307 341.717 50.7374 341.515 50.3854 341.376C50.0334 341.237 49.5587 341.088 48.9614 340.928C48.2254 340.736 47.6334 340.544 47.1854 340.352C46.748 340.16 46.3694 339.861 46.0494 339.456C45.74 339.04 45.5854 338.485 45.5854 337.792C45.5854 337.184 45.74 336.645 46.0494 336.176C46.3587 335.707 46.7907 335.344 47.3454 335.088C47.9107 334.832 48.556 334.704 49.2814 334.704C50.3267 334.704 51.18 334.965 51.8414 335.488C52.5134 336.011 52.892 336.704 52.9774 337.568H51.3774C51.324 337.141 51.1 336.768 50.7054 336.448C50.3107 336.117 49.788 335.952 49.1374 335.952C48.5294 335.952 48.0334 336.112 47.6494 336.432C47.2654 336.741 47.0734 337.179 47.0734 337.744C47.0734 338.149 47.1854 338.48 47.4094 338.736C47.644 338.992 47.9267 339.189 48.2574 339.328C48.5987 339.456 49.0734 339.605 49.6814 339.776C50.4174 339.979 51.0094 340.181 51.4574 340.384C51.9054 340.576 52.2894 340.88 52.6094 341.296C52.9294 341.701 53.0894 342.256 53.0894 342.96C53.0894 343.504 52.9454 344.016 52.6574 344.496C52.3694 344.976 51.9427 345.365 51.3774 345.664C50.812 345.963 50.1454 346.112 49.3774 346.112ZM56.688 334.848V346H55.232V334.848H56.688ZM67.9375 346H66.4815L60.6255 337.12V346H59.1695V334.832H60.6255L66.4815 343.696V334.832H67.9375V346ZM71.8755 336.032V339.76H75.9395V340.96H71.8755V344.8H76.4195V346H70.4195V334.832H76.4195V336.032H71.8755ZM82.1586 346.112C81.4226 346.112 80.7613 345.984 80.1746 345.728C79.5986 345.461 79.1453 345.099 78.8146 344.64C78.484 344.171 78.3133 343.632 78.3026 343.024H79.8546C79.908 343.547 80.1213 343.989 80.4946 344.352C80.8786 344.704 81.4333 344.88 82.1586 344.88C82.852 344.88 83.396 344.709 83.7906 344.368C84.196 344.016 84.3986 343.568 84.3986 343.024C84.3986 342.597 84.2813 342.251 84.0466 341.984C83.812 341.717 83.5186 341.515 83.1666 341.376C82.8146 341.237 82.34 341.088 81.7426 340.928C81.0066 340.736 80.4146 340.544 79.9666 340.352C79.5293 340.16 79.1506 339.861 78.8306 339.456C78.5213 339.04 78.3666 338.485 78.3666 337.792C78.3666 337.184 78.5213 336.645 78.8306 336.176C79.14 335.707 79.572 335.344 80.1266 335.088C80.692 334.832 81.3373 334.704 82.0626 334.704C83.108 334.704 83.9613 334.965 84.6226 335.488C85.2946 336.011 85.6733 336.704 85.7586 337.568H84.1586C84.1053 337.141 83.8813 336.768 83.4866 336.448C83.092 336.117 82.5693 335.952 81.9186 335.952C81.3106 335.952 80.8146 336.112 80.4306 336.432C80.0466 336.741 79.8546 337.179 79.8546 337.744C79.8546 338.149 79.9666 338.48 80.1906 338.736C80.4253 338.992 80.708 339.189 81.0386 339.328C81.38 339.456 81.8546 339.605 82.4626 339.776C83.1986 339.979 83.7906 340.181 84.2386 340.384C84.6866 340.576 85.0706 340.88 85.3906 341.296C85.7106 341.701 85.8706 342.256 85.8706 342.96C85.8706 343.504 85.7266 344.016 85.4386 344.496C85.1506 344.976 84.724 345.365 84.1586 345.664C83.5933 345.963 82.9266 346.112 82.1586 346.112ZM91.5493 346.112C90.8133 346.112 90.1519 345.984 89.5653 345.728C88.9893 345.461 88.5359 345.099 88.2053 344.64C87.8746 344.171 87.7039 343.632 87.6933 343.024H89.2453C89.2986 343.547 89.5119 343.989 89.8853 344.352C90.2693 344.704 90.8239 344.88 91.5493 344.88C92.2426 344.88 92.7866 344.709 93.1813 344.368C93.5866 344.016 93.7893 343.568 93.7893 343.024C93.7893 342.597 93.6719 342.251 93.4373 341.984C93.2026 341.717 92.9093 341.515 92.5573 341.376C92.2053 341.237 91.7306 341.088 91.1333 340.928C90.3973 340.736 89.8053 340.544 89.3573 340.352C88.9199 340.16 88.5413 339.861 88.2213 339.456C87.9119 339.04 87.7573 338.485 87.7573 337.792C87.7573 337.184 87.9119 336.645 88.2213 336.176C88.5306 335.707 88.9626 335.344 89.5173 335.088C90.0826 334.832 90.7279 334.704 91.4533 334.704C92.4986 334.704 93.3519 334.965 94.0133 335.488C94.6853 336.011 95.0639 336.704 95.1493 337.568H93.5493C93.4959 337.141 93.2719 336.768 92.8773 336.448C92.4826 336.117 91.9599 335.952 91.3093 335.952C90.7013 335.952 90.2053 336.112 89.8213 336.432C89.4373 336.741 89.2453 337.179 89.2453 337.744C89.2453 338.149 89.3573 338.48 89.5813 338.736C89.8159 338.992 90.0986 339.189 90.4293 339.328C90.7706 339.456 91.2453 339.605 91.8533 339.776C92.5893 339.979 93.1813 340.181 93.6293 340.384C94.0773 340.576 94.4613 340.88 94.7812 341.296C95.1013 341.701 95.2613 342.256 95.2613 342.96C95.2613 343.504 95.1173 344.016 94.8293 344.496C94.5413 344.976 94.1146 345.365 93.5493 345.664C92.9839 345.963 92.3173 346.112 91.5493 346.112Z" fill="url(#paint4_linear_126_4584)"/>
<rect width="300" height="56" transform="translate(0 368)" fill="white"/>
<path d="M28.704 390.848C29.92 390.848 30.9707 391.077 31.856 391.536C32.752 391.984 33.4347 392.629 33.904 393.472C34.384 394.315 34.624 395.307 34.624 396.448C34.624 397.589 34.384 398.581 33.904 399.424C33.4347 400.256 32.752 400.896 31.856 401.344C30.9707 401.781 29.92 402 28.704 402H25.232V390.848H28.704ZM28.704 400.8C30.144 400.8 31.2427 400.421 32 399.664C32.7573 398.896 33.136 397.824 33.136 396.448C33.136 395.061 32.752 393.979 31.984 393.2C31.2267 392.421 30.1333 392.032 28.704 392.032H26.688V400.8H28.704ZM38.0005 392.032V395.76H42.0645V396.96H38.0005V400.8H42.5445V402H36.5445V390.832H42.5445V392.032H38.0005ZM48.2836 402.112C47.5476 402.112 46.8863 401.984 46.2996 401.728C45.7236 401.461 45.2703 401.099 44.9396 400.64C44.609 400.171 44.4383 399.632 44.4276 399.024H45.9796C46.033 399.547 46.2463 399.989 46.6196 400.352C47.0036 400.704 47.5583 400.88 48.2836 400.88C48.977 400.88 49.521 400.709 49.9156 400.368C50.321 400.016 50.5236 399.568 50.5236 399.024C50.5236 398.597 50.4063 398.251 50.1716 397.984C49.937 397.717 49.6436 397.515 49.2916 397.376C48.9396 397.237 48.465 397.088 47.8676 396.928C47.1316 396.736 46.5396 396.544 46.0916 396.352C45.6543 396.16 45.2756 395.861 44.9556 395.456C44.6463 395.04 44.4916 394.485 44.4916 393.792C44.4916 393.184 44.6463 392.645 44.9556 392.176C45.265 391.707 45.697 391.344 46.2516 391.088C46.817 390.832 47.4623 390.704 48.1876 390.704C49.233 390.704 50.0863 390.965 50.7476 391.488C51.4196 392.011 51.7983 392.704 51.8836 393.568H50.2836C50.2303 393.141 50.0063 392.768 49.6116 392.448C49.217 392.117 48.6943 391.952 48.0436 391.952C47.4356 391.952 46.9396 392.112 46.5556 392.432C46.1716 392.741 45.9796 393.179 45.9796 393.744C45.9796 394.149 46.0916 394.48 46.3156 394.736C46.5503 394.992 46.833 395.189 47.1636 395.328C47.505 395.456 47.9796 395.605 48.5876 395.776C49.3236 395.979 49.9156 396.181 50.3636 396.384C50.8116 396.576 51.1956 396.88 51.5156 397.296C51.8356 397.701 51.9956 398.256 51.9956 398.96C51.9956 399.504 51.8516 400.016 51.5636 400.496C51.2756 400.976 50.849 401.365 50.2836 401.664C49.7183 401.963 49.0516 402.112 48.2836 402.112ZM55.5943 390.848V402H54.1383V390.848H55.5943ZM66.5238 394.08C66.2144 393.429 65.7664 392.928 65.1798 392.576C64.5931 392.213 63.9104 392.032 63.1318 392.032C62.3531 392.032 61.6491 392.213 61.0198 392.576C60.4011 392.928 59.9104 393.44 59.5478 394.112C59.1958 394.773 59.0198 395.541 59.0198 396.416C59.0198 397.291 59.1958 398.059 59.5478 398.72C59.9104 399.381 60.4011 399.893 61.0198 400.256C61.6491 400.608 62.3531 400.784 63.1318 400.784C64.2198 400.784 65.1158 400.459 65.8198 399.808C66.5238 399.157 66.9344 398.277 67.0518 397.168H62.6038V395.984H68.6038V397.104C68.5184 398.021 68.2304 398.864 67.7398 399.632C67.2491 400.389 66.6038 400.992 65.8038 401.44C65.0038 401.877 64.1131 402.096 63.1318 402.096C62.0971 402.096 61.1531 401.856 60.2998 401.376C59.4464 400.885 58.7691 400.208 58.2678 399.344C57.7771 398.48 57.5318 397.504 57.5318 396.416C57.5318 395.328 57.7771 394.352 58.2678 393.488C58.7691 392.613 59.4464 391.936 60.2998 391.456C61.1531 390.965 62.0971 390.72 63.1318 390.72C64.3158 390.72 65.3611 391.013 66.2678 391.6C67.1851 392.187 67.8518 393.013 68.2678 394.08H66.5238ZM79.2969 402H77.8409L71.9849 393.12V402H70.5289V390.832H71.9849L77.8409 399.696V390.832H79.2969V402ZM94.6045 402L93.1485 400.528C92.6045 401.093 92.0232 401.515 91.4045 401.792C90.7858 402.059 90.0872 402.192 89.3085 402.192C88.5405 402.192 87.8578 402.053 87.2605 401.776C86.6738 401.499 86.2152 401.104 85.8845 400.592C85.5645 400.08 85.4045 399.483 85.4045 398.8C85.4045 398.021 85.6232 397.339 86.0605 396.752C86.5085 396.155 87.1645 395.685 88.0285 395.344C87.6872 394.939 87.4418 394.565 87.2925 394.224C87.1432 393.883 87.0685 393.509 87.0685 393.104C87.0685 392.635 87.1858 392.213 87.4205 391.84C87.6658 391.456 88.0125 391.157 88.4605 390.944C88.9085 390.731 89.4258 390.624 90.0125 390.624C90.5885 390.624 91.0898 390.736 91.5165 390.96C91.9432 391.184 92.2632 391.499 92.4765 391.904C92.6898 392.299 92.7858 392.741 92.7645 393.232H91.3085C91.3192 392.795 91.1965 392.453 90.9405 392.208C90.6845 391.952 90.3538 391.824 89.9485 391.824C89.5218 391.824 89.1752 391.947 88.9085 392.192C88.6525 392.427 88.5245 392.731 88.5245 393.104C88.5245 393.424 88.6098 393.733 88.7805 394.032C88.9618 394.331 89.2605 394.699 89.6765 395.136L93.0045 398.48L93.2925 398.032L94.3805 396.208H95.9485L94.6365 398.48C94.4552 398.8 94.2418 399.136 93.9965 399.488L96.5085 402H94.6045ZM89.3085 400.944C89.8845 400.944 90.4018 400.832 90.8605 400.608C91.3298 400.384 91.7725 400.037 92.1885 399.568L88.9085 396.272C87.5432 396.795 86.8605 397.621 86.8605 398.752C86.8605 399.381 87.0845 399.904 87.5325 400.32C87.9912 400.736 88.5832 400.944 89.3085 400.944ZM103.562 390.848V397.904C103.562 398.896 103.802 399.632 104.282 400.112C104.773 400.592 105.45 400.832 106.314 400.832C107.168 400.832 107.834 400.592 108.314 400.112C108.805 399.632 109.05 398.896 109.05 397.904V390.848H110.506V397.888C110.506 398.816 110.32 399.6 109.946 400.24C109.573 400.869 109.066 401.339 108.426 401.648C107.797 401.957 107.088 402.112 106.298 402.112C105.509 402.112 104.794 401.957 104.154 401.648C103.525 401.339 103.024 400.869 102.65 400.24C102.288 399.6 102.106 398.816 102.106 397.888V390.848H103.562ZM117.495 396.432L120.919 402H119.271L116.599 397.648L114.055 402H112.439L115.847 396.432L112.423 390.848H114.055L116.743 395.216L119.303 390.848H120.935L117.495 396.432Z" fill="url(#paint5_linear_126_4584)"/>
</g>
<defs>
<filter id="filter0_d_126_4584" x="-8" y="80" width="316" height="360" filterUnits="userSpaceOnUse" color-interpolation-filters="sRGB">
<feFlood flood-opacity="0" result="BackgroundImageFix"/>
<feColorMatrix in="SourceAlpha" type="matrix" values="0 0 0 0 0 0 0 0 0 0 0 0 0 0 0 0 0 0 127 0" result="hardAlpha"/>
<feOffset dy="8"/>
<feGaussianBlur stdDeviation="4"/>
<feComposite in2="hardAlpha" operator="out"/>
<feColorMatrix type="matrix" values="0 0 0 0 0 0 0 0 0 0 0 0 0 0 0 0 0 0 0.25 0"/>
<feBlend mode="normal" in2="BackgroundImageFix" result="effect1_dropShadow_126_4584"/>
<feBlend mode="normal" in="SourceGraphic" in2="effect1_dropShadow_126_4584" result="shape"/>
</filter>
<linearGradient id="paint0_linear_126_4584" x1="33.4259" y1="-9.60003" x2="149.059" y2="5.71112" gradientUnits="userSpaceOnUse">
<stop stop-color="#002F52"/>
<stop offset="1" stop-color="#326589"/>
</linearGradient>
<linearGradient id="paint1_linear_126_4584" x1="76.228" y1="157.12" x2="200.817" y2="243.042" gradientUnits="userSpaceOnUse">
<stop stop-color="#002F52"/>
<stop offset="1" stop-color="#326589"/>
</linearGradient>
<linearGradient id="paint2_linear_126_4584" x1="61.6042" y1="213.12" x2="167.792" y2="265.846" gradientUnits="userSpaceOnUse">
<stop stop-color="#002F52"/>
<stop offset="1" stop-color="#326589"/>
</linearGradient>
<linearGradient id="paint3_linear_126_4584" x1="78.735" y1="269.12" x2="205.295" y2="360.59" gradientUnits="userSpaceOnUse">
<stop stop-color="#002F52"/>
<stop offset="1" stop-color="#326589"/>
</linearGradient>
<linearGradient id="paint4_linear_126_4584" x1="54.5012" y1="325.12" x2="146.882" y2="362.326" gradientUnits="userSpaceOnUse">
<stop stop-color="#002F52"/>
<stop offset="1" stop-color="#326589"/>
</linearGradient>
<linearGradient id="paint5_linear_126_4584" x1="64.9468" y1="381.12" x2="176.477" y2="441.422" gradientUnits="userSpaceOnUse">
<stop stop-color="#002F52"/>
<stop offset="1" stop-color="#326589"/>
</linearGradient>
<clipPath id="clip0_126_4584">
<rect width="48" height="48" fill="white" transform="translate(16 16)"/>
</clipPath>
</defs>
</svg>
